<?xml version="1.0" standalone="no"?>
<!DOCTYPE svg PUBLIC "-//W3C//DTD SVG 20010904//EN"
 "http://www.w3.org/TR/2001/REC-SVG-20010904/DTD/svg10.dtd">
<svg version="1.0" xmlns="http://www.w3.org/2000/svg"
 width="1000.000000pt" height="1000.000000pt" viewBox="0 0 1000.000000 1000.000000"
 preserveAspectRatio="xMidYMid meet">
<metadata>
Created by potrace 1.14, written by Peter Selinger 2001-2017
</metadata>
<g transform="translate(0.000000,1000.000000) scale(0.100000,-0.100000)"
fill="#000000" stroke="none">
<path d="M2265 6045 c-138 -41 -203 -140 -192 -294 8 -119 61 -249 155 -381
57 -80 206 -235 290 -302 34 -27 60 -53 57 -58 -3 -4 -21 -11 -40 -14 -41 -8
-190 -69 -255 -104 -126 -69 -244 -193 -279 -292 -47 -135 -1 -255 134 -344
144 -96 318 -122 538 -81 61 12 194 67 291 121 113 63 327 201 338 218 20 30
4 -15 -29 -80 -102 -205 -314 -412 -556 -543 -164 -88 -399 -169 -576 -197
-18 -3 -43 -8 -55 -10 -11 -2 -46 -7 -76 -10 -30 -3 -63 -8 -73 -10 -32 -10
-409 -12 -482 -3 -82 9 -105 5 -105 -21 0 -26 4 -27 110 -36 182 -15 490 -4
610 21 14 3 43 8 65 11 246 36 551 155 758 296 105 72 270 231 344 332 56 76
118 195 143 273 11 38 28 63 56 87 55 47 146 160 180 225 16 29 41 59 56 67
79 41 117 149 133 381 18 242 47 359 116 462 50 76 98 117 174 152 69 32 142
42 137 19 -3 -14 -171 -442 -198 -505 -7 -16 -46 -114 -88 -217 l-74 -188 38
0 38 0 67 170 c37 94 70 170 74 171 10 0 333 1 362 0 25 -1 31 -12 94 -171
l67 -170 39 0 39 0 -21 53 c-12 28 -43 108 -70 177 -123 319 -285 726 -293
739 -7 10 -28 12 -93 8 -68 -4 -96 -11 -151 -37 -147 -72 -258 -239 -287 -430
-4 -25 -9 -54 -11 -64 -2 -11 -6 -56 -9 -100 -14 -205 -32 -300 -68 -357 l-21
-34 -7 49 c-10 61 -35 97 -79 112 -131 44 -178 -180 -49 -235 21 -9 39 -19 39
-23 0 -9 -115 -161 -134 -177 -12 -10 -14 4 -14 101 0 246 -65 450 -220 688
-179 276 -383 440 -667 535 -88 30 -208 39 -270 20z m203 -60 c23 -7 42 -11
42 -9 0 10 175 -72 255 -120 111 -67 215 -162 307 -280 81 -105 181 -270 193
-316 0 -3 6 -14 12 -25 21 -38 65 -190 78 -270 14 -87 12 -265 -4 -306 -5 -15
-8 -29 -5 -32 3 -2 -19 -23 -48 -46 -29 -22 -57 -44 -63 -49 -99 -78 -395
-244 -495 -276 -240 -79 -449 -53 -609 74 -70 55 -95 110 -88 191 6 74 39 132
121 213 82 80 200 146 356 196 l126 41 60 -35 c75 -45 165 -77 217 -78 98 -1
127 126 39 168 -43 20 -163 26 -248 11 l-53 -9 -63 48 c-133 101 -287 265
-365 389 -150 238 -135 473 34 525 40 12 150 9 201 -5z m1982 -554 c0 -4 -76
-6 -170 -6 -93 0 -170 1 -170 2 0 1 33 86 74 190 40 103 79 205 86 226 l12 39
84 -223 c46 -122 84 -225 84 -228z m-854 -383 c8 -26 7 -84 -1 -98 -3 -5 -17
-5 -34 1 -50 18 -69 95 -29 123 26 18 53 7 64 -26z m-649 -81 c28 -28 6 -53
-43 -49 -44 4 -154 50 -154 64 0 6 36 9 90 6 69 -2 93 -7 107 -21z"/>
<path d="M5038 5338 c-41 -41 -47 -58 -23 -58 12 0 15 -19 15 -113 0 -139 11
-155 97 -149 25 2 56 29 47 43 -3 5 -12 2 -20 -6 -9 -8 -21 -15 -28 -15 -30 0
-39 31 -40 133 l-1 102 38 3 c52 4 51 32 -2 32 -37 0 -38 1 -35 30 5 42 -6 42
-48 -2z"/>
<path d="M5568 5337 c-41 -44 -46 -57 -23 -57 12 0 15 -19 15 -109 0 -118 11
-147 59 -156 28 -5 91 19 91 36 0 7 -7 8 -17 4 -66 -27 -75 -13 -77 120 l-2
105 38 0 c27 0 38 4 38 15 0 11 -11 15 -39 15 -38 0 -39 1 -36 30 6 43 -5 42
-47 -3z"/>
<path d="M4778 5306 c-30 -6 -48 -15 -48 -23 0 -8 4 -12 8 -9 4 2 14 1 22 -4
9 -6 14 -36 15 -102 2 -96 -5 -128 -30 -128 -8 0 -15 -4 -15 -10 0 -6 32 -10
75 -10 77 0 92 8 53 25 -21 9 -23 17 -22 75 1 81 9 115 34 140 16 16 24 18 44
9 33 -16 58 -5 54 23 -2 18 -11 24 -36 26 -26 3 -39 -3 -67 -31 l-34 -34 -3
31 -3 31 -47 -9z"/>
<path d="M5290 5301 c-40 -21 -80 -89 -80 -134 0 -17 10 -51 21 -75 37 -75
122 -98 207 -54 17 9 32 22 32 29 0 17 -4 16 -46 -6 -62 -34 -123 -5 -141 67
-16 66 -12 69 85 70 116 0 112 -1 112 23 0 30 -29 76 -57 88 -36 17 -94 13
-133 -8z m121 -42 c15 -29 7 -33 -65 -35 -57 -2 -63 0 -59 16 16 59 96 71 124
19z"/>
<path d="M5820 5301 c-49 -26 -81 -89 -76 -151 5 -60 27 -93 76 -118 57 -28
123 -20 168 21 15 14 19 23 11 28 -7 4 -21 -1 -31 -11 -56 -52 -140 -19 -157
62 -13 62 -10 65 87 64 102 -2 112 0 112 25 0 82 -104 127 -190 80z m117 -38
c9 -13 12 -27 9 -31 -10 -9 -125 -11 -131 -2 -7 11 25 51 48 59 30 11 56 2 74
-26z"/>
<path d="M6194 5286 c-31 -31 -34 -32 -35 -12 -1 11 -1 25 0 30 2 8 -86 -1
-103 -11 -5 -3 3 -12 18 -20 28 -15 29 -17 28 -130 0 -88 -5 -103 -34 -103
-15 0 -19 -3 -12 -10 6 -6 43 -10 85 -8 72 3 73 3 45 18 -28 14 -28 15 -24 95
3 56 10 89 23 108 17 26 22 28 60 22 33 -4 44 -2 48 10 21 54 -48 62 -99 11z"/>
<path d="M6379 5316 c-3 -3 -16 -7 -29 -9 -30 -5 -39 -27 -11 -27 27 0 33 -25
29 -135 -3 -82 -5 -91 -25 -100 -40 -17 -25 -25 52 -25 72 0 97 12 55 25 -21
7 -24 21 -22 125 1 30 7 65 13 77 25 48 111 55 128 10 5 -12 8 -62 7 -112 -1
-83 -3 -91 -23 -100 -40 -17 -25 -25 52 -25 72 0 97 12 55 25 -22 7 -21 4 -24
100 -3 94 26 144 86 145 54 0 71 -44 66 -165 -3 -61 -6 -71 -25 -80 -40 -17
-25 -25 52 -25 43 0 75 4 75 10 0 6 -6 10 -14 10 -24 0 -29 18 -32 109 -1 47
-3 94 -3 104 -1 10 -12 29 -26 42 -33 34 -99 34 -147 1 l-34 -23 -28 23 c-37
33 -101 32 -149 0 l-36 -25 -3 22 c-3 20 -27 34 -39 23z"/>
<path d="M7010 5301 c-52 -28 -74 -64 -76 -124 -3 -80 36 -136 109 -155 99
-27 197 46 197 147 0 115 -127 188 -230 132z m135 -37 c14 -15 26 -34 26 -43
11 -124 -14 -174 -88 -174 -82 0 -120 132 -62 214 28 40 89 41 124 3z"/>
<path d="M7333 5298 c-49 -55 -36 -98 47 -153 48 -32 60 -45 60 -67 0 -21 -6
-29 -24 -34 -38 -9 -65 4 -86 44 -10 20 -20 35 -21 32 -7 -27 -7 -100 1 -100
5 0 10 5 10 10 0 7 6 7 19 0 59 -31 132 -12 150 41 16 45 -2 75 -74 124 -62
43 -76 65 -55 90 25 30 50 19 94 -40 14 -19 15 -17 16 25 l0 45 -58 3 c-50 2
-61 -1 -79 -20z"/>
<path d="M5801 4793 c-12 -13 -12 -17 2 -25 19 -10 23 -38 6 -38 -5 0 -7 4 -4
10 3 5 0 7 -8 4 -8 -3 -18 -1 -22 5 -4 8 -11 6 -22 -5 -13 -13 -14 -19 -3 -40
l13 -24 22 20 c12 11 24 20 28 20 12 0 8 -23 -8 -40 -14 -15 -13 -18 3 -33 18
-16 20 -16 39 0 19 17 19 19 2 37 -25 26 -13 41 17 21 22 -14 26 -14 40 0 15
14 15 18 -1 36 -17 18 -20 18 -36 3 -28 -25 -44 -13 -20 17 19 25 19 25 0 37
-24 15 -31 15 -48 -5z"/>
<path d="M5421 4742 c-175 -2 -249 -6 -260 -15 -8 -6 -12 -7 -8 -1 4 7 -56 10
-196 8 -111 -1 -328 -3 -481 -3 -154 -1 -277 -4 -274 -7 4 -3 172 -7 375 -10
202 -2 538 -6 747 -8 208 -3 375 -2 372 2 -4 3 -52 7 -107 8 -55 0 -102 4
-106 8 -3 3 45 6 107 6 62 0 110 3 106 7 -8 9 10 8 -275 5z m40 -21 c-12 -8
-51 -4 -51 5 0 2 15 4 33 4 22 0 28 -3 18 -9z"/>
<path d="M5960 4738 c0 -5 43 -8 95 -8 71 0 95 -3 95 -13 0 -10 44 -12 213
-10 116 1 402 4 635 6 233 3 426 7 429 11 4 3 -106 6 -243 7 -255 0 -1007 8
-1146 12 -43 1 -78 -1 -78 -5z m260 -12 c0 -11 -19 -15 -25 -6 -3 5 1 10 9 10
9 0 16 -2 16 -4z m57 -2 c-3 -3 -12 -4 -19 -1 -8 3 -5 6 6 6 11 1 17 -2 13 -5z"/>
<path d="M4140 4726 c0 -2 11 -6 25 -8 14 -3 25 -1 25 3 0 5 -11 9 -25 9 -14
0 -25 -2 -25 -4z"/>
<path d="M7440 4720 c0 -5 7 -7 15 -4 8 4 15 8 15 10 0 2 -7 4 -15 4 -8 0 -15
-4 -15 -10z"/>
<path d="M7488 4723 c7 -3 16 -2 19 1 4 3 -2 6 -13 5 -11 0 -14 -3 -6 -6z"/>
<path d="M7558 4723 c7 -3 16 -2 19 1 4 3 -2 6 -13 5 -11 0 -14 -3 -6 -6z"/>
<path d="M5960 4707 c0 -5 40 -7 90 -5 49 2 90 6 90 10 0 4 -40 6 -90 5 -49
-1 -90 -6 -90 -10z"/>
<path d="M6466 4540 c-14 -4 -16 -9 -8 -14 7 -4 12 -18 12 -31 0 -22 -3 -24
-29 -19 -21 5 -33 1 -48 -15 -39 -42 -8 -105 47 -99 14 1 30 -1 35 -4 6 -4 17
-3 25 3 10 5 11 9 3 9 -8 0 -13 28 -15 89 -3 82 -4 88 -22 81z m-9 -82 c11
-19 14 -40 8 -65 -7 -31 -42 -30 -57 2 -20 45 24 102 49 63z"/>
<path d="M6237 4513 c12 -46 6 -135 -9 -144 -9 -6 -2 -9 21 -9 25 0 31 3 24
13 -6 6 -10 47 -9 90 1 68 -1 77 -17 77 -14 0 -16 -5 -10 -27z"/>
<path d="M6317 4534 c-8 -8 1 -24 14 -24 5 0 9 7 9 15 0 15 -12 20 -23 9z"/>
<path d="M6728 4528 c7 -7 12 -22 12 -34 0 -17 -5 -20 -25 -16 -50 9 -81 -49
-55 -98 8 -16 21 -19 65 -18 38 1 52 5 46 12 -5 6 -9 36 -9 66 1 97 0 100 -24
100 -17 0 -19 -3 -10 -12z m-4 -64 c31 -12 17 -94 -15 -94 -26 0 -42 42 -29
75 10 26 17 29 44 19z"/>
<path d="M7147 4528 c4 -7 9 -23 11 -35 2 -20 -1 -22 -25 -17 -39 7 -66 -15
-66 -56 0 -43 23 -59 87 -58 28 0 45 3 39 5 -9 3 -13 31 -13 89 0 78 -1 84
-21 84 -14 0 -18 -4 -12 -12z m-7 -68 c23 -12 22 -68 -2 -83 -35 -23 -68 49
-36 81 14 14 15 15 38 2z"/>
<path d="M7230 4525 c0 -9 5 -15 11 -13 6 2 11 8 11 13 0 5 -5 11 -11 13 -6 2
-11 -4 -11 -13z"/>
<path d="M5961 4513 c-14 -11 -24 -34 -28 -60 -5 -36 -2 -45 21 -68 23 -23 34
-26 74 -23 49 3 64 12 55 34 -3 9 -10 7 -24 -7 -23 -23 -48 -24 -75 -5 -23 17
-27 94 -5 119 19 24 56 21 81 -5 l20 -22 0 25 c0 23 -4 26 -48 28 -35 1 -55
-3 -71 -16z"/>
<path d="M7555 4520 c-4 -6 5 -10 19 -10 14 0 29 0 33 -1 4 0 9 3 10 8 4 12
-54 15 -62 3z"/>
<path d="M6114 4468 c-10 -16 4 -22 20 -9 8 7 20 10 26 6 17 -10 11 -33 -10
-40 -29 -9 -50 -33 -44 -50 4 -9 21 -13 54 -13 32 1 47 5 42 12 -3 6 -7 28 -8
49 -1 21 -5 41 -8 44 -11 11 -66 12 -72 1z m56 -67 c0 -21 -26 -36 -36 -20 -6
11 13 39 27 39 5 0 9 -9 9 -19z"/>
<path d="M6305 4470 c-3 -5 -2 -10 4 -10 6 0 10 -20 9 -45 0 -32 -5 -45 -17
-48 -9 -3 2 -5 24 -6 30 -1 36 2 27 11 -7 7 -12 34 -12 60 0 35 -4 48 -14 48
-8 0 -18 -4 -21 -10z"/>
<path d="M6540 4470 c-8 -5 -11 -12 -7 -16 4 -4 13 -2 19 4 18 18 38 14 38 -8
0 -13 -9 -22 -25 -26 -28 -7 -47 -34 -37 -51 4 -6 31 -11 61 -11 31 0 48 4 40
8 -7 5 -13 26 -14 47 -1 21 -4 44 -9 51 -9 14 -45 16 -66 2z m48 -72 c-4 -29
-38 -38 -38 -10 0 19 11 29 33 31 5 1 7 -9 5 -21z"/>
<path d="M6862 4463 c8 -10 23 -40 34 -67 l18 -49 -24 -19 c-24 -19 -23 -33 1
-23 8 3 32 43 54 89 39 82 40 84 17 84 -15 0 -20 -4 -14 -12 6 -6 3 -25 -5
-46 l-15 -35 -15 29 c-8 15 -13 36 -10 45 3 13 -3 18 -26 19 -29 2 -30 1 -15
-15z"/>
<path d="M7220 4470 c-8 -5 -9 -9 -1 -11 17 -6 20 -68 4 -85 -13 -12 -11 -14
16 -14 28 0 29 2 21 29 -4 15 -6 39 -3 53 5 27 -14 42 -37 28z"/>
<path d="M7306 4473 c-15 -15 -4 -51 19 -63 14 -7 25 -19 25 -27 0 -15 -26
-18 -35 -3 -3 6 -11 10 -16 10 -14 0 -2 -18 20 -29 24 -13 61 12 55 37 -3 9
-19 25 -36 35 -23 13 -28 21 -20 29 8 8 15 8 25 -1 12 -9 16 -8 20 2 4 10 -3
14 -23 15 -15 0 -31 -2 -34 -5z"/>
<path d="M7418 4466 c-23 -17 -29 -60 -12 -85 16 -23 58 -28 84 -11 11 8 8 9
-13 4 -31 -7 -57 9 -57 37 0 15 8 19 40 19 26 0 40 5 40 13 0 34 -49 48 -82
23z m52 -11 c0 -10 -10 -15 -26 -15 -22 0 -25 2 -14 15 7 8 19 15 26 15 8 0
14 -7 14 -15z"/>
<path d="M7520 4468 c0 -5 4 -8 9 -8 12 0 11 -59 -1 -82 -7 -16 -4 -18 24 -17
18 0 27 3 21 6 -7 2 -13 22 -13 43 0 39 19 65 42 58 16 -6 20 -78 6 -95 -8
-10 -2 -13 23 -12 19 0 28 3 22 6 -8 3 -13 23 -13 48 0 24 -6 47 -12 52 -16
10 -108 11 -108 1z"/>
<path d="M7691 4459 c-17 -16 -21 -28 -16 -48 17 -69 107 -68 119 2 10 57 -58
88 -103 46z m68 -3 c17 -20 10 -67 -11 -79 -23 -15 -48 8 -48 42 0 45 35 66
59 37z"/>
<path d="M7826 4382 c-3 -6 -1 -14 5 -17 15 -10 25 3 12 16 -7 7 -13 7 -17 1z"/>
</g>
</svg>
